<svg height="512" viewBox="0 0 32 32" width="512" xmlns="http://www.w3.org/2000/svg"><g id="businessman" fill-rule="evenodd"><path d="m27.76 1.6h-23.52a2.641 2.641 0 0 0 -2.64 2.64v23.52a2.641 2.641 0 0 0 2.64 2.64h23.52a2.641 2.641 0 0 0 2.64-2.64v-23.52a2.641 2.641 0 0 0 -2.64-2.64zm1.84 26.16a1.84 1.84 0 0 1 -1.84 1.84h-23.52a1.84 1.84 0 0 1 -1.84-1.84v-23.52a1.84 1.84 0 0 1 1.84-1.84h23.52a1.84 1.84 0 0 1 1.84 1.84z"/><path d="m18.26 16.2a5.543 5.543 0 1 0 -4.52 0 8.123 8.123 0 0 0 -5.854 7.8.4.4 0 0 0 .8 0 7.314 7.314 0 1 1 14.628 0 .4.4 0 0 0 .8 0 8.123 8.123 0 0 0 -5.854-7.8zm-7-5.062a4.743 4.743 0 1 1 4.74 4.748 4.745 4.745 0 0 1 -4.743-4.743z"/><path d="m17.643 18.678a.4.4 0 1 0 -.715.358l1.157 2.314-2.085 2.084-2.085-2.084 1.157-2.314a.4.4 0 1 0 -.715-.358l-1.286 2.572a.4.4 0 0 0 .075.461l2.571 2.572a.4.4 0 0 0 .566 0l2.571-2.572a.4.4 0 0 0 .075-.461z"/></g></svg>