<svg id="Layer_1" enable-background="new 0 0 64 64" height="512" viewBox="0 0 64 64" width="512" xmlns="http://www.w3.org/2000/svg"><g><path d="m33.986 22.836c-.08-.482-.497-.836-.986-.836h-2c-.489 0-.906.354-.986.836l-1 6c-.053.318.051.643.279.871l2 2c.195.195.451.293.707.293s.512-.098.707-.293l2-2c.229-.229.333-.553.279-.871zm-1.986 6.75-.929-.929.776-4.657h.306l.776 4.657z"/><path d="m55 52.09v-7.09c0-1.654-1.346-3-3-3h-19v-6.051c9.459-.523 17-8.362 17-17.949 0-9.925-8.075-18-18-18s-18 8.075-18 18c0 9.587 7.541 17.426 17 17.949v6.051h-19c-1.654 0-3 1.346-3 3v7.09c-2.833.478-5 2.943-5 5.91 0 3.309 2.691 6 6 6s6-2.691 6-6c0-2.967-2.167-5.432-5-5.91v-7.09c0-.552.449-1 1-1h19v8.09c-2.833.479-5 2.943-5 5.91 0 3.309 2.691 6 6 6s6-2.691 6-6c0-2.967-2.167-5.432-5-5.91v-8.09h19c.551 0 1 .448 1 1v7.09c-2.833.479-5 2.943-5 5.91 0 3.309 2.691 6 6 6s6-2.691 6-6c0-2.967-2.167-5.432-5-5.91zm-31-20.255v-2.835c0-4.411 3.589-8 8-8s8 3.589 8 8v2.835c-2.356 1.368-5.084 2.165-8 2.165s-5.644-.797-8-2.165zm3-17.835c0-2.757 2.243-5 5-5s5 2.243 5 5-2.243 5-5 5-5-2.243-5-5zm-11 4c0-8.822 7.178-16 16-16s16 7.178 16 16c0 5.039-2.348 9.535-6 12.47v-1.47c0-4.125-2.511-7.674-6.085-9.2 1.86-1.26 3.085-3.39 3.085-5.8 0-3.859-3.14-7-7-7s-7 3.141-7 7c0 2.41 1.225 4.54 3.085 5.8-3.574 1.526-6.085 5.075-6.085 9.2v1.47c-3.652-2.935-6-7.431-6-12.47zm-2 40c0 2.206-1.794 4-4 4s-4-1.794-4-4 1.794-4 4-4 4 1.794 4 4zm22 0c0 2.206-1.794 4-4 4s-4-1.794-4-4 1.794-4 4-4 4 1.794 4 4zm18 4c-2.206 0-4-1.794-4-4s1.794-4 4-4 4 1.794 4 4-1.794 4-4 4z"/></g></svg>