<svg xmlns="http://www.w3.org/2000/svg" version="1.1" xmlns:xlink="http://www.w3.org/1999/xlink" width="512" height="512" x="0" y="0" viewBox="0 0 512 512" style="enable-background:new 0 0 512 512" xml:space="preserve" class=""><g><path fill="#e2e2e2" d="M21.348 316.878c0 31.443 14.297 60.18 37.901 82.152 5.446 5.07-10.759 42.876-10.759 42.876s40.727-21.171 47.34-17.927c23.198 11.379 50.392 17.927 79.468 17.927 85.021 0 153.95-55.988 153.95-125.029s-68.929-125.029-153.95-125.029-153.95 55.99-153.95 125.03z" opacity="1" data-original="#b5a6b3" class=""></path><path fill="#f4f4f4" d="M490.652 228.983c0 39.962-18.171 76.484-48.169 104.41-6.921 6.443 13.674 54.493 13.674 54.493s-51.76-26.906-60.166-22.784c-29.484 14.462-64.045 22.784-100.998 22.784-108.055 0-195.659-71.157-195.659-158.902S186.938 70.081 294.993 70.081s195.659 71.157 195.659 158.902z" opacity="1" data-original="#f4f4f4" class=""></path><path fill="#141414" d="M404.047 247.903c0 42.246-34.247 76.493-76.493 76.493h-65.123c-42.246 0-76.493-34.247-76.493-76.493 0-42.246 34.247-76.493 76.493-76.493h65.123c42.246.001 76.493 34.248 76.493 76.493z" opacity="1" data-original="#e8b031" class=""></path><path fill="#f4f4f4" d="M371.164 247.903c0 15.975-12.95 28.926-28.926 28.926h-94.491c-15.975 0-28.926-12.95-28.926-28.926 0-15.975 12.95-28.926 28.926-28.926h94.491c15.976.001 28.926 12.951 28.926 28.926z" opacity="1" data-original="#f4f4f4" class=""></path><path fill="#141414" d="M268.787 247.887c0 5.617-4.592 10.209-10.209 10.209s-10.176-4.593-10.176-10.209c0-5.617 4.56-10.176 10.176-10.176 5.617-.001 10.209 4.559 10.209 10.176zM341.585 247.887c0 5.617-4.592 10.209-10.209 10.209s-10.176-4.593-10.176-10.209c0-5.617 4.56-10.176 10.176-10.176s10.209 4.559 10.209 10.176z" opacity="1" data-original="#e8b031" class=""></path><path fill="#e2e2e2" d="M310.375 125.404c0 8.468-6.898 15.366-15.366 15.366-8.499 0-15.397-6.898-15.397-15.366 0-8.499 6.898-15.397 15.397-15.397 8.468 0 15.366 6.898 15.366 15.397z" opacity="1" data-original="#b5a6b3" class=""></path><g fill="#4d1958"><path d="M54.876 402.453c.568 4.472-4.524 21.13-11.452 37.3a5.5 5.5 0 0 0 7.594 7.045c16.875-8.778 37.83-17.894 42.801-17.661 24.6 11.961 52.764 18.282 81.483 18.282 39.568 0 77.513-11.932 106.844-33.598a5.498 5.498 0 0 0 1.156-7.691 5.498 5.498 0 0 0-7.691-1.156c-27.454 20.278-63.078 31.446-100.31 31.446-27.217 0-53.869-6.006-77.053-17.36-5.057-2.501-18.237 1.339-39.25 11.431 10.806-29.106 5.809-33.8 4.003-35.495-23.316-21.687-36.156-49.424-36.156-78.102 0-35.685 19.607-69.231 53.795-92.035a5.503 5.503 0 0 0 1.524-7.628 5.503 5.503 0 0 0-7.628-1.524c-37.298 24.881-58.69 61.762-58.69 101.187.002 31.511 13.862 61.87 39.03 85.559z" fill="#1b1b1c" opacity="1" data-original="#4d1958" class=""></path><path d="M294.994 64.582c-110.921 0-201.16 73.75-201.16 164.401s90.24 164.403 201.16 164.403c36.414 0 72.074-8.026 103.149-23.214 5.732-.775 33.17 10.999 55.478 22.595a5.507 5.507 0 0 0 6.278-.849 5.502 5.502 0 0 0 1.314-6.198c-9.306-21.714-15.862-43.695-14.569-48.688 31.933-29.912 49.508-68.262 49.508-108.049 0-90.652-90.24-164.401-201.158-164.401zm143.741 264.785c-5.553 5.172-3.274 20.951 6.767 46.976-21.669-10.591-44.479-19.845-51.933-16.18-29.639 14.539-63.726 22.222-98.575 22.222-104.855 0-190.161-68.816-190.161-153.403 0-84.586 85.306-153.401 190.161-153.401 104.853 0 190.159 68.816 190.159 153.401-.001 36.871-16.485 72.522-46.418 100.385z" fill="#1b1b1c" opacity="1" data-original="#4d1958" class=""></path><path d="M406.197 215.192c-1.147 0-2.28.062-3.398.178-12.617-29.069-41.589-49.458-75.245-49.458h-27.059l.01-20.4c8.843-2.422 15.37-10.507 15.37-20.108 0-11.522-9.361-20.896-20.867-20.896-11.522 0-20.896 9.374-20.896 20.896 0 9.602 6.537 17.688 15.394 20.109l-.01 20.399h-27.064c-33.656 0-62.627 20.389-75.245 49.458a32.877 32.877 0 0 0-3.398-.178c-18.037 0-32.712 14.675-32.712 32.712s14.675 32.712 32.712 32.712c1.147 0 2.28-.062 3.398-.178 12.617 29.069 41.589 49.458 75.245 49.458h65.122c33.656 0 62.627-20.389 75.245-49.458 1.117.116 2.25.178 3.398.178 18.037 0 32.712-14.675 32.712-32.712s-14.675-32.712-32.712-32.712zm-121.086-89.788c0-5.457 4.44-9.897 9.897-9.897 5.441 0 9.868 4.44 9.868 9.897 0 5.441-4.427 9.868-9.868 9.868-5.457 0-9.897-4.428-9.897-9.868zm113.436 122.5c0 6.621-.979 13.007-2.682 19.092-6.772-3.68-11.38-10.858-11.38-19.092s4.608-15.412 11.38-19.092c1.703 6.085 2.682 12.47 2.682 19.092zm-136.115-70.993h65.122c28.63 0 53.295 17.069 64.513 41.536-7.966 3.837-14.15 10.784-16.94 19.28-4.351-14.03-17.448-24.248-32.889-24.248h-94.491c-15.441 0-28.537 10.219-32.887 24.248-2.791-8.496-8.974-15.443-16.94-19.28 11.218-24.467 35.882-41.536 64.512-41.536zm103.234 70.993c0 12.917-10.509 23.425-23.427 23.425h-94.491c-12.917 0-23.425-10.509-23.425-23.425 0-12.917 10.509-23.425 23.425-23.425h94.491c12.918-.001 23.427 10.508 23.427 23.425zm-174.226 0c0-6.621.979-13.007 2.682-19.092 6.772 3.68 11.38 10.858 11.38 19.092s-4.608 15.412-11.38 19.092c-1.703-6.086-2.682-12.471-2.682-19.092zm-29.362 0c0-11.831 9.518-21.467 21.297-21.691-1.899 6.914-2.934 14.182-2.934 21.691s1.035 14.777 2.934 21.691c-11.779-.225-21.297-9.86-21.297-21.691zm165.477 70.992h-65.122c-28.63 0-53.294-17.069-64.512-41.536 7.966-3.837 14.149-10.784 16.94-19.28 4.35 14.03 17.446 24.248 32.887 24.248h94.491c15.441 0 28.538-10.219 32.889-24.248 2.791 8.496 8.974 15.443 16.94 19.28-11.219 24.467-35.883 41.536-64.513 41.536zm79.057-49.301c1.899-6.914 2.934-14.182 2.934-21.691s-1.035-14.777-2.934-21.691c11.779.224 21.297 9.86 21.297 21.691s-9.518 21.466-21.297 21.691z" fill="#1b1b1c" opacity="1" data-original="#4d1958" class=""></path><path d="M258.578 232.21c-8.643 0-15.675 7.032-15.675 15.677 0 8.661 7.032 15.708 15.675 15.708 8.663 0 15.709-7.046 15.709-15.708 0-8.645-7.046-15.677-15.709-15.677zm0 20.386c-2.578 0-4.676-2.112-4.676-4.708a4.682 4.682 0 0 1 4.676-4.678c2.598 0 4.71 2.098 4.71 4.678a4.714 4.714 0 0 1-4.71 4.708zM315.7 247.887c0 8.661 7.032 15.708 15.675 15.708 8.663 0 15.709-7.046 15.709-15.708 0-8.645-7.046-15.677-15.709-15.677-8.643 0-15.675 7.032-15.675 15.677zm20.385 0a4.714 4.714 0 0 1-4.71 4.708c-2.578 0-4.676-2.112-4.676-4.708a4.682 4.682 0 0 1 4.676-4.678c2.598.001 4.71 2.099 4.71 4.678z" fill="#1b1b1c" opacity="1" data-original="#4d1958" class=""></path></g></g></svg>