<svg id="Layer_1" enable-background="new 0 0 512 512" height="512" viewBox="0 0 512 512" width="512" xmlns="http://www.w3.org/2000/svg"><path d="m264.001 224.2v39.311l13.325-13.325c3.124-3.125 8.189-3.124 11.313-.001 3.124 3.124 3.125 8.189 0 11.313l-26.981 26.982c-1.5 1.501-3.535 2.344-5.657 2.344s-4.157-.843-5.657-2.343l-26.982-26.981c-3.125-3.125-3.124-8.19 0-11.314 3.125-3.123 8.19-3.121 11.313 0l13.325 13.326v-39.312c0-4.418 3.582-8 8-8s8.001 3.582 8.001 8zm135.238-157.673h-64.532c-4.418 0-8 3.582-8 8s3.582 8 8 8h64.532c17.712 0 32.122 14.41 32.122 32.122v148.861l-13.324-13.325c-3.124-3.123-8.189-3.124-11.314-.001-3.124 3.124-3.125 8.189 0 11.313l26.981 26.983c1.5 1.501 3.536 2.344 5.657 2.344s4.157-.843 5.657-2.344l26.981-26.983c3.124-3.124 3.124-8.189 0-11.313-3.125-3.123-8.19-3.124-11.314.001l-13.325 13.325v-148.861c0-26.534-21.587-48.122-48.121-48.122zm-281.319 287.117c0 24.967-20.312 45.279-45.279 45.279s-45.279-20.313-45.279-45.279 20.312-45.279 45.279-45.279 45.279 20.312 45.279 45.279zm-16 0c0-16.145-13.135-29.279-29.279-29.279s-29.279 13.135-29.279 29.279 13.135 29.279 29.279 29.279 29.279-13.135 29.279-29.279zm-101.92 150.357v-71.921c0-17.989 14.636-32.625 32.625-32.625h9.834c1.437 0 2.847.387 4.083 1.12 7.871 4.672 16.896 7.141 26.099 7.141s18.227-2.469 26.098-7.141c1.235-.733 2.646-1.12 4.083-1.12h9.834c17.99 0 32.625 14.636 32.625 32.625v71.921c0 4.418-3.582 8-8 8h-129.281c-4.418 0-8-3.582-8-8zm16-8h113.282v-63.921c0-9.167-7.458-16.625-16.625-16.625h-7.714c-9.864 5.41-20.983 8.261-32.301 8.261s-22.437-2.85-32.302-8.261h-7.714c-9.167 0-16.625 7.458-16.625 16.625v63.921zm468.64-142.357c0 24.967-20.312 45.279-45.279 45.279s-45.279-20.313-45.279-45.279 20.312-45.279 45.279-45.279 45.279 20.312 45.279 45.279zm-16 0c0-16.145-13.135-29.279-29.279-29.279s-29.279 13.135-29.279 29.279 13.135 29.279 29.279 29.279 29.279-13.135 29.279-29.279zm43.361 78.436v71.921c0 4.418-3.582 8-8 8h-129.282c-4.418 0-8-3.582-8-8v-71.921c0-17.989 14.636-32.625 32.625-32.625h9.834c1.437 0 2.847.387 4.083 1.12 7.871 4.672 16.896 7.141 26.099 7.141s18.227-2.469 26.098-7.141c1.235-.733 2.646-1.12 4.083-1.12h9.834c17.99 0 32.626 14.636 32.626 32.625zm-16 0c0-9.167-7.458-16.625-16.625-16.625h-7.714c-9.864 5.41-20.983 8.261-32.301 8.261s-22.437-2.85-32.302-8.261h-7.714c-9.167 0-16.625 7.458-16.625 16.625v63.921h113.282v-63.921zm-285.28-78.436c0-24.967 20.313-45.279 45.28-45.279s45.279 20.313 45.279 45.279-20.312 45.279-45.279 45.279-45.28-20.313-45.28-45.279zm16 0c0 16.145 13.135 29.279 29.28 29.279s29.279-13.135 29.279-29.279-13.135-29.279-29.279-29.279c-16.145-.001-29.28 13.134-29.28 29.279zm-10.736 45.811h9.835c1.437 0 2.847.387 4.083 1.12 7.871 4.672 16.896 7.141 26.098 7.141s18.228-2.469 26.098-7.141c1.236-.733 2.646-1.12 4.083-1.12h9.834c17.989 0 32.625 14.636 32.625 32.625v71.921c0 4.418-3.582 8-8 8h-129.281c-4.418 0-8-3.582-8-8v-71.921c0-17.989 14.636-32.625 32.625-32.625zm-16.625 96.546h113.281v-63.921c0-9.167-7.458-16.625-16.625-16.625h-7.714c-9.865 5.411-20.983 8.261-32.301 8.261s-22.436-2.85-32.301-8.261h-7.715c-9.167 0-16.625 7.458-16.625 16.625zm101.92-450.721c0 24.967-20.312 45.279-45.279 45.279s-45.28-20.313-45.28-45.279 20.313-45.279 45.28-45.279 45.279 20.312 45.279 45.279zm-16 0c0-16.145-13.135-29.279-29.279-29.279-16.145 0-29.28 13.135-29.28 29.279s13.135 29.279 29.28 29.279c16.145.001 29.279-13.134 29.279-29.279zm43.361 78.436v71.922c0 4.418-3.582 8-8 8h-129.281c-4.418 0-8-3.582-8-8v-71.922c0-17.989 14.636-32.625 32.625-32.625h9.835c1.437 0 2.847.387 4.083 1.12 7.872 4.672 16.896 7.142 26.098 7.142s18.226-2.47 26.098-7.142c1.236-.733 2.646-1.12 4.083-1.12h9.834c17.989 0 32.625 14.636 32.625 32.625zm-16 0c0-9.167-7.458-16.625-16.625-16.625h-7.714c-9.866 5.412-20.984 8.262-32.301 8.262s-22.436-2.85-32.301-8.262h-7.715c-9.167 0-16.625 7.458-16.625 16.625v63.922h113.281zm-127.347-49.189c0-4.418-3.582-8-8-8h-64.531c-26.535 0-48.122 21.588-48.122 48.122v148.861l-13.324-13.325c-3.124-3.123-8.189-3.124-11.314-.001-3.124 3.124-3.125 8.189 0 11.313l26.981 26.983c1.5 1.501 3.536 2.344 5.657 2.344s4.157-.843 5.657-2.344l26.981-26.983c3.124-3.124 3.124-8.189 0-11.313-3.125-3.123-8.19-3.124-11.314.001l-13.324 13.325v-148.861c0-17.712 14.41-32.122 32.122-32.122h64.531c4.419 0 8-3.582 8-8z"/></svg>