<svg id="Layer_1" enable-background="new 0 0 68 68" height="512" viewBox="0 0 68 68" width="512" xmlns="http://www.w3.org/2000/svg"><g id="_x31_3"><path d="m21.4 33.4h23.4c1.1 0 2-.9 2-2v-3.6c0-4.5-3.6-8.3-8-8.6-.4-.4-.9-.9-1.2-1.4 2-1.4 3.2-3.8 3.2-6.3v-3.6c0-3.3-2.7-5.9-5.9-5.9h-3.6c-3.3 0-5.9 2.7-5.9 5.9v3.6c0 2.6 1.2 4.8 3.2 6.3-.2.5-.7 1-1.2 1.4-4.5.3-8 4-8 8.6v3.6c0 1.1.9 2 2 2zm6-25.5c0-2.2 1.8-3.9 3.9-3.9h3.6c1.9 0 3.5 1.3 3.9 3.1-.8.8-1.6 1.1-2.3 1-1.1-.2-2-1.4-2.2-1.9-.4-.8-1.5-.7-1.8.1-.1.2-1.4 3.5-5.1 2.8zm0 3.3c2.6.4 4.7-.7 6.1-2.6.6.7 1.5 1.4 2.7 1.6.9.1 1.8-.1 2.7-.6v2c0 5.3-6.4 7.5-9.8 4.1-2-2-1.7-4.4-1.7-4.5zm9.5 9-3.8 3.9-3.8-3.9c.4-.4.8-.9 1.1-1.5 1.9.7 3.8.7 5.5 0 .3.6.7 1.1 1 1.5zm-15.5 7.6c0-3.4 2.7-6.3 6-6.6l5 5c.4.4 1 .4 1.4 0l5-5c3.4.3 6 3.1 6 6.6v3.6h-3.7v-3.5c0-.6-.4-1-1-1s-1 .4-1 1v3.5h-12v-3.5c0-.6-.4-1-1-1s-1 .4-1 1v3.5h-3.7z"/><path d="m38.6 52.7 4 3-1.7.3c-.5.1-.9.6-.8 1.2.1.5.5.8 1 .8.2 0 .1 0 4-.8.5-.1.9-.7.8-1.2l-.8-3.8c-.1-.5-.7-.9-1.2-.8s-.9.6-.8 1.2l.3 1.2-4-3c.7-3.2-1.5-6.3-4.7-6.9v-5.3l1.1 1.1c.4.4 1 .4 1.4 0s.4-1 0-1.4l-2.7-2.8c-.4-.4-1.1-.4-1.5.1l-2.7 2.7c-.4.4-.4 1 0 1.4s1 .4 1.4 0l1.1-1v5.3c-3.2.6-5.3 3.6-4.7 6.9l-4 3 .3-1.2c.1-.5-.2-1.1-.8-1.2-.5-.1-1.1.2-1.2.8l-.8 3.8c-.1.5.3 1.1.8 1.2 4 .9 3.8.8 4 .8.5 0 .9-.3 1-.8s-.2-1.1-.8-1.2l-1.7-.4 4-3c2.3 3.6 7.4 3.6 9.7 0zm-4.9.7c-2.1 0-3.8-1.7-3.8-3.8s1.7-3.8 3.8-3.8 3.8 1.7 3.8 3.8-1.7 3.8-3.8 3.8z"/><path d="m22.1 13.9c.5-.2.7-.8.4-1.3-.2-.5-.8-.7-1.3-.4-9.5 4.8-15.4 14.4-15.4 25 0 2.2.3 4.4.8 6.5.1.5.7.9 1.2.7.5-.1.9-.7.7-1.2-.5-2-.7-4-.7-6 0-10 5.5-18.9 14.3-23.3z"/><path d="m60 43.5c.5.1 1.1-.2 1.2-.8.4-1.8.6-3.7.6-5.6 0-10.7-6-20.3-15.6-25.1-.5-.2-1.1 0-1.3.5s0 1.1.5 1.3c9 4.4 14.5 13.3 14.5 23.3 0 1.8-.2 3.5-.5 5.2-.3.6 0 1.1.6 1.2z"/><path d="m30 64h-7.4c-.4-4-3-7.3-6.6-8.7 4.1-3.4 1.7-10.1-3.6-10.1-3.1 0-5.7 2.6-5.7 5.7 0 1.8.8 3.3 2.1 4.4-4 1.5-6.8 5.3-6.8 9.7 0 .6.4 1 1 1h27c.6 0 1-.4 1-1s-.4-1-1-1zm-21.4-13c0-2 1.7-3.7 3.7-3.7s3.7 1.7 3.7 3.7-1.7 3.7-3.7 3.7-3.7-1.7-3.7-3.7zm-4.5 13c.5-4.1 4-7.3 8.3-7.3s7.8 3.2 8.3 7.3z"/><path d="m59.3 55.3c1.3-1 2.1-2.6 2.1-4.4 0-3.1-2.6-5.7-5.7-5.7s-5.7 2.6-5.7 5.7c0 1.8.8 3.3 2.1 4.4-3.6 1.4-6.2 4.7-6.6 8.7h-10.5c-.6 0-1 .4-1 1s.4 1 1 1h30c.6 0 1-.4 1-1 0-4.4-2.8-8.2-6.7-9.7zm-7.3-4.3c0-2 1.7-3.7 3.7-3.7s3.7 1.7 3.7 3.7-1.7 3.7-3.7 3.7c-2.1 0-3.7-1.7-3.7-3.7zm-4.6 13c.5-4.1 4-7.3 8.3-7.3s7.8 3.2 8.3 7.3z"/></g></svg>