<svg clip-rule="evenodd" fill-rule="evenodd" stroke-linejoin="round" stroke-miterlimit="2" viewBox="0 0 510 510" xmlns="http://www.w3.org/2000/svg"><path d="m391.392 166.988c1.028 1.911 1.611 4.098 1.611 6.421v19.97c0 7.486-6.047 13.558-13.558 13.558-13.436 0-20.183 16.282-10.68 25.785 5.29 5.289 5.29 13.893 0 19.183l-14.119 14.119c-5.289 5.289-13.893 5.289-19.183 0-9.503-9.503-25.784-2.757-25.784 10.679 0 7.511-6.072 13.559-13.559 13.559h-19.97c-7.486 0-13.558-6.048-13.558-13.559 0-13.452-16.273-20.19-25.784-10.679-5.293 5.293-13.879 5.293-19.169.002l-14.133-14.121c-5.29-5.29-5.29-13.894 0-19.183 9.502-9.503 2.764-25.785-10.68-25.785-7.486 0-13.558-6.072-13.558-13.558v-19.97c0-7.486 6.072-13.558 13.558-13.558 13.444 0 20.182-16.282 10.68-25.785-5.293-5.292-5.293-13.878 0-19.171l14.131-14.131c5.292-5.292 13.878-5.292 19.171 0 9.503 9.503 25.784 2.765 25.784-10.679 0-7.487 6.072-13.559 13.558-13.559h15.282c2.197-2.873 5.661-4.727 9.556-4.727 8.834 0 13.261-10.698 7.017-16.942-4.693-4.693-4.693-12.306 0-16.999l10.82-10.819c4.693-4.693 12.305-4.693 16.998 0 6.244 6.244 16.942 1.816 16.942-7.017 0-6.638 5.384-12.022 12.022-12.022h15.29c6.638 0 12.022 5.384 12.022 12.022 0 8.833 10.698 13.261 16.942 7.017 4.689-4.69 12.318-4.69 17.007 0l10.811 10.819c4.693 4.693 4.693 12.306 0 16.999-6.244 6.244-1.812 16.942 7.017 16.942 6.659 0 12.021 5.383 12.021 12.021v15.291c0 6.637-5.362 12.021-12.021 12.021-8.829 0-13.261 10.698-7.017 16.942 4.689 4.69 4.689 12.318 0 17.007l-10.811 10.811c-4.689 4.69-12.318 4.69-17.007 0-6.244-6.244-16.942-1.811-16.942 7.017 0 1.433-.25 2.807-.707 4.079zm-102.425-76.462h-12.378c-.352 25.464-31.116 38.197-49.365 20.45l-13.507 13.507c17.748 18.248 5.014 49.013-20.449 49.365v19.093c25.466.352 38.199 31.122 20.443 49.37l13.513 13.502c18.264-17.764 49.013-5.03 49.365 20.449h19.093c.352-25.451 31.123-38.2 49.37-20.444l13.508-13.507c-17.756-18.248-5.008-49.018 20.443-49.37v-18.01h-14.216c-6.638 0-12.022-5.362-12.022-12.022 0-8.839-10.692-13.266-16.942-7.017-.063.063-.126.125-.191.187 4.499 8.106 7.064 17.423 7.064 27.321 0 31.141-25.413 56.555-56.555 56.555-31.155 0-56.555-25.414-56.555-56.555 0-31.155 25.4-56.555 56.555-56.555 7.03 0 13.768 1.294 19.988 3.657.507-.868 1.133-1.685 1.876-2.428 4.505-4.504 3.455-11.327-.796-14.779-.153-.115-.306-.232-.458-.35-1.57-1.126-3.525-1.813-5.763-1.813-6.638 0-12.021-5.384-12.021-12.021zm14-4.803v11.485c19.315 1.487 28.885 24.612 16.281 39.316l8.129 8.122c14.715-12.613 37.827-3.042 39.313 16.285h11.484c1.488-19.305 24.613-28.885 39.317-16.281l8.126-8.125c-12.605-14.704-3.024-37.829 16.28-39.317v-11.485c-19.302-1.488-28.883-24.609-16.284-39.313l-8.122-8.129c-14.704 12.605-37.83 3.035-39.317-16.281h-11.484c-1.487 19.314-24.608 28.884-39.312 16.285l-8.126 8.126c12.599 14.704 3.028 37.825-16.285 39.312zm69.47 49.487c-24.096 0-43.741-19.655-43.741-43.74 0-24.096 19.645-43.74 43.741-43.74 24.085 0 43.74 19.644 43.74 43.74 0 24.085-19.655 43.74-43.74 43.74zm0-14c16.376 0 29.74-13.364 29.74-29.74 0-16.384-13.364-29.74-29.74-29.74-16.384 0-29.741 13.356-29.741 29.74 0 16.376 13.357 29.74 29.741 29.74zm-86.296 104.745c23.433 0 42.555-19.123 42.555-42.555 0-23.443-19.122-42.555-42.555-42.555-23.443 0-42.555 19.112-42.555 42.555 0 23.432 19.112 42.555 42.555 42.555zm4.6-197.272c3.862.121 6.898 3.355 6.777 7.216-.121 3.862-3.354 6.898-7.216 6.777-7.159-.224-14.603-.137-22.338.277-88.169 4.724-145.753 69.543-145.753 154.235 0 1.169-.293 2.32-.852 3.347l-52.42 96.266c-2.336 4.294.545 9.706 5.491 9.706h40.781c3.866 0 7 3.134 7 7v22.927c0 41.031 21.973 79.962 72.174 79.962 3.866 0 7 3.134 7 7v64.604h146.763s0-64.571.001-64.536c-.296-27.561 15.031-48.662 33.651-73.952 25.73-34.946 57.334-79.023 53.29-166.79v-.001c-.236-5.145-.658-10.231-1.273-15.242-.47-3.835 2.262-7.33 6.096-7.8 3.835-.47 7.33 2.261 7.8 6.096.657 5.361 1.11 10.801 1.362 16.304 4.259 92.45-28.898 138.922-56.001 175.734-16.601 22.548-31.192 40.932-30.926 65.507v.076 71.604c0 3.866-3.134 7-7 7h-160.763c-3.866 0-7-3.134-7-7v-64.821c-54.523-3.434-79.174-47.131-79.174-93.745v-15.927h-33.781c-15.621 0-25.167-16.836-17.789-30.397l.001-.002s51.577-94.717 51.577-94.716c.809-91.498 63.448-161.3 158.997-166.419 8.145-.436 15.985-.526 23.525-.29z"/></svg>