<svg enable-background="new 0 0 32 32" viewBox="0 0 32 32" xmlns="http://www.w3.org/2000/svg"><g id="_x30_1_sales"/><g id="_x30_2_megaphone"/><g id="_x30_3_target"/><g id="_x30_4_briefcase"/><g id="_x30_5_graph"/><g id="_x30_6_email_marketing"/><g id="_x30_7_mobile_payment"/><g id="_x30_8_chat"/><g id="_x30_9_email"/><g id="_x31_0_shopping_online"/><g id="_x31_1_browser"/><g id="_x31_2_content"/><g id="_x31_3_blogging"/><g id="_x31_4_link"/><g id="_x31_5_web_development"/><g id="_x31_6_target_dollar"/><g id="_x31_7_reward"/><g id="_x31_8_website_love"/><g id="_x31_9_pay_per_click"/><g id="_x32_0_growth"/><g id="_x32_1_form"/><g id="_x32_2_mailing"/><g id="_x32_3_protection"/><g id="_x32_4_search"><path d="m18 1c-7.17 0-13 5.83-13 13 0 3.22 1.19 6.17 3.14 8.45l-6.85 6.85c-.39.39-.39 1.02 0 1.41.2.19.45.29.71.29s.51-.1.71-.29l6.85-6.85c2.27 1.95 5.22 3.14 8.44 3.14 7.17 0 13-5.83 13-13s-5.83-13-13-13zm0 24c-6.07 0-11-4.93-11-11s4.93-11 11-11 11 4.93 11 11-4.93 11-11 11zm6.21-14.79c.39.39.39 1.02 0 1.41l-5.59 5.59c-.58.58-1.35.88-2.12.88s-1.54-.29-2.12-.88l-2.59-2.59c-.39-.39-.39-1.02 0-1.41s1.02-.39 1.41 0l2.59 2.59c.39.39 1.02.39 1.41 0l5.59-5.59c.39-.39 1.03-.39 1.42 0z"/></g><g id="_x32_5_chat_speech_bubble"/></svg>