<svg clip-rule="evenodd" fill-rule="evenodd" height="512" image-rendering="optimizeQuality" shape-rendering="geometricPrecision" text-rendering="geometricPrecision" viewBox="0 0 512 512" width="512" xmlns="http://www.w3.org/2000/svg"><g id="Layer_x0020_1"><path d="m384.405 235.299c-6.62719 0-11.9941-5.36695-11.9941-11.9941 0-46.1328-37.5332-83.6648-83.6648-83.6648-15.7926 0-15.7926-23.9871 0-23.9871 59.3588 0 107.652 48.2942 107.652 107.652 0 6.62719-5.36695 11.9941-11.993 11.9941zm-27.7217 276.561c-41.3694 0-80.1558-16.004-109.219-45.0663l-202.209-202.215c-60.2175-60.2175-60.2175-158.209.00472442-218.434l24.4867-24.4879c4.68545-4.68072 12.2776-4.68072 16.9607 0l125.222 125.223c4.67836 4.67718 4.676 12.2894 0 16.9666l-36.5789 36.5753 136.274 136.274 36.5753-36.5718c4.49883-4.49765 12.4595-4.49765 16.9571 0l125.222 125.222c4.68663 4.6819 4.68663 12.2776 0 16.9583l-24.4867 24.4867c-29.0505 29.0647-67.8392 45.0686-109.209 45.0686zm-278.454-464.757-16.004 16.0087c-50.8726 50.8679-50.8726 133.643 0 184.511l202.209 202.212c50.7557 50.7545 133.757 50.7616 184.511 0l16.004-16.0087-108.266-108.261-36.5753 36.5718c-4.49883 4.49883-12.4595 4.49883-16.9583 0l-153.236-153.237c-4.67836-4.67718-4.676-12.2894 0-16.9666l36.5789-36.5753-108.264-108.255zm421.687 188.196c-6.62719 0-11.9941-5.36695-11.9941-11.9941 0-109.828-89.3507-199.178-199.178-199.178-15.7902 0-15.7902-23.9859 0-23.9859 123.054 0 223.165 100.111 223.165 223.164 0 6.62719-5.36695 11.9941-11.993 11.9941zm-57.7561 0c-6.626 0-11.993-5.36695-11.993-11.9941 0-77.9813-63.4407-141.422-141.423-141.422-15.7902 0-15.7914-23.9871 0-23.9871 91.2038 0 165.409 74.2006 165.409 165.409 0 6.62719-5.36695 11.9941-11.993 11.9941z"/></g></svg>