<svg id="Layer_1" enable-background="new 0 0 64 64.1999969" height="512" viewBox="0 0 64 64.1999969" width="512" xmlns="http://www.w3.org/2000/svg"><path d="m31.6328125 7.5349607c-.1875-.1875-.4414062-.2929688-.7070312-.2929688s-.5205078.1054688-.7080078.2939453l-4.8535156 4.8613281c-.3896484.390625-.3896484 1.0234375.0009766 1.4130859.6689453.6689453 1.0380859 1.5576172 1.0380859 2.5039072 0 .9453125-.3691406 1.8349609-1.0361328 2.5019531-1.3828125 1.3769531-3.6298828 1.3759766-5.0107422.0009766-.3916016-.3916016-1.0244141-.3876953-1.4121094 0l-4.8613281 4.8535156c-.1884766.1875-.2939453.4423828-.2939453.7080078 0 .2646484.1054688.5195312.2929688.7070312l6.8417969 6.8417969h-17.9238283c-.5527344 0-1 .4472656-1 1v6.8769531c0 .5527344.4472656 1 1 1 1.9511719 0 3.5380859 1.5869141 3.5380859 3.5380859s-1.586914 3.5380862-3.5380859 3.5380862c-.5527344 0-1 .4472656-1 1v6.8769531c0 .5527344.4472656 1 1 1h42.5234375c.5527344 0 1-.4472656 1-1v-1.5576782l3.9003906-3.9013062c.1875-.1875.2929688-.4423828.2929688-.7070312 0-.265625-.1054688-.5195312-.2929688-.7070312-.6689453-.6689453-1.0380859-1.5576172-1.0380859-2.5039062 0-.9453125.3691406-1.8349609 1.0380859-2.5039062 1.3818359-1.3808594 3.6289062-1.3789062 5.0087891 0 .375.375 1.0390625.375 1.4140625 0l4.8603516-4.8613281c.1874999-.1875001.2929687-.442383.2929687-.7070314 0-.265625-.1054688-.5195312-.2929688-.7070312zm12.890625 47.2226573h-40.5234375v-4.9677734c2.578125-.4716797 4.5380859-2.734375 4.5380859-5.4472656s-1.9599609-4.975586-4.5380859-5.4472657v-4.9677734h19.3378906 21.1855469v4.9677734c-2.5791016.4716797-4.5390625 2.734375-4.5390625 5.4472656s1.9599609 4.9755859 4.5390625 5.4472656v3.9960938zm11.5517578-12.9384766c-2.1591797-1.4912109-5.1464844-1.2734375-7.0654297.6435547-1.046875 1.046875-1.6240234 2.4384766-1.6240234 3.9179688 0 1.1416016.3427734 2.2294922.9794922 3.1484375l-1.8417969 1.8417969v-2.4902344c0-.5527344-.4472656-1-1-1-1.9511719 0-3.5390625-1.5869141-3.5390625-3.5380859s1.5878906-3.5380859 3.5390625-3.5380859c.5527344 0 1-.4472656 1-1v-6.8769531c0-.5527344-.4472656-1-1-1h-21.7714844l-7.5478516-7.5478516 3.5107422-3.5058594c2.15625 1.4833984 5.1445312 1.2695312 7.0644531-.6416016 1.046875-1.046875 1.6240234-2.4384766 1.6240234-3.9179688 0-1.1416025-.3427734-2.2304697-.9804688-3.1484385l3.5039062-3.5087891 28.6591797 28.6513672z"/></svg>