<svg id="Layer_1" enable-background="new 0 0 68 68" height="512" viewBox="0 0 68 68" width="512" xmlns="http://www.w3.org/2000/svg"><g id="_x31_2"><path d="m46.9 27.7c-.6 0-1 .4-1 1s.4 1 1 1c9.5 0 17.2 7.7 17.2 17.2 0 4.7-2 9.3-5.4 12.5v-.4c0-3.3-2.7-5.9-5.9-5.9h-1.3l-1-2.8c1.5-1.2 2.5-3 2.5-5.1v-1c1.2-2 1.6-3.7 1.9-5.1.8-3.8-5-7.6-7.6-3.7-2.4-.4-4.6-.1-6.2 1-1.1.7-1.7 1.6-1.9 2.5-.6 2.8.4 4.7.9 5.4v.9c0 2.5 1.4 4.6 3.4 5.7l-.9 2.1h-1.6c-3.3 0-5.9 2.7-5.9 5.9v.5c-3-2.9-4.9-6.6-5.3-10.8l2 1.6c.4.3 1.1.3 1.4-.1s.3-1.1-.1-1.4l-3.8-3.1c-.4-.4-1.1-.3-1.4.1l-3.1 3.8c-.3.4-.3 1.1.1 1.4s1.1.3 1.4-.1l1.5-1.8c2.6 23.5 38.3 21.8 38.3-2.1 0-10.5-8.6-19.2-19.2-19.2zm-6 14c-.1-.6-.2-1.5 0-2.4.2-1.1 2.7-2.7 6.5-1.8.5.1 1-.1 1.2-.6 0 0 .1-.2.2-.4 1.3-1.9 4.4.5 4 2.2-.2 1-.5 2.1-1.1 3.4l-.6-1.1c-.3-.5-.9-.8-1.4-.8h-6.9c-1.4 0-1.7 1.3-1.9 1.5zm1 3.5v-1l1.1-2h6.6l1.4 2.1v.9c0 2.5-2 4.5-4.5 4.5-2.6 0-4.6-2-4.6-4.5zm7.8 9-2.8 3.1-2.9-3.1 1.1-2.5c1.2.2 2.4.1 3.5-.3zm7 6.9c-5.9 4.1-13.8 4.1-19.6 0v-2.1c0-2.2 1.8-3.9 3.9-3.9h1.2l4 4.3c.4.4 1.1.4 1.5 0l4-4.3h1.2c2.2 0 3.9 1.8 3.9 3.9v2.1z"/><path d="m42.3 22.4c0-11.1-9.1-20.2-20.2-20.2s-20.2 9-20.2 20.2c0 11.1 9 20.2 20.2 20.2s20.2-9.1 20.2-20.2zm-33.7 12.1c-3-3.3-4.7-7.7-4.7-12.2 0-10 8.2-18.2 18.2-18.2s18.2 8.2 18.2 18.2c0 4.5-1.7 8.8-4.7 12.2-.8-3.6-4-6.4-7.8-6.7-.4-.3-.8-.8-1.1-1.2 1.4-1.1 2.4-2.7 2.7-4.6.7-4.8 1.4-6.4.8-8.5-.8-2.7-3.2-4.5-6.1-4.5h-4c-2.8 0-5.3 1.8-6.2 4.5-.6 2.1.1 3.7.8 8.5.3 1.9 1.3 3.5 2.7 4.6-.2.4-.7.9-1.1 1.2-3.7.3-6.9 3.1-7.7 6.7zm13.5-8.2c-2.7 0-5-1.9-5.4-4.6l-.4-2.4c2.8.3 5-.9 6.3-3.2 1.6 1.7 3.6 2.3 5.7 1.2l-.8 4.5c-.4 2.5-2.7 4.5-5.4 4.5zm3.9 2.6-3.9 3.9-3.9-3.9c.3-.3.7-.8.9-1.2 1.9.8 4 .8 5.8 0 .4.4.8.9 1.1 1.2zm-10-11.7c-.1-.7-.5-1.9-.1-3 .6-1.9 2.3-3.1 4.3-3.1h4c2.3 0 4.1 1.7 4.4 3.6-.9.9-1.8 1.3-2.6 1.2-1.3-.2-2.3-1.6-2.5-2.1-.4-.8-1.6-.7-1.8.2 0 0-.6 2.2-2.4 3.1-1.1.3-2.2.3-3.3.1zm6.1 23.4c-4.2 0-8.5-1.5-11.8-4.4.1-3.3 2.8-6.1 6.1-6.4l5 5c.4.4 1 .4 1.4 0l5-5c3.3.3 5.9 3 6.1 6.4-3.2 2.8-7.4 4.4-11.8 4.4z"/></g></svg>